<?xml version="1.0" standalone="no"?>
<!DOCTYPE svg PUBLIC "-//W3C//DTD SVG 20010904//EN"
 "http://www.w3.org/TR/2001/REC-SVG-20010904/DTD/svg10.dtd">
<svg version="1.0" xmlns="http://www.w3.org/2000/svg"
 width="700.000000pt" height="700.000000pt" viewBox="0 0 700.000000 700.000000"
 preserveAspectRatio="xMidYMid meet">
<metadata>
Created by potrace 1.11, written by Peter Selinger 2001-2013
</metadata>
<g transform="translate(0.000000,700.000000) scale(0.100000,-0.100000)"
fill="#000000" stroke="none">
<path d="M3290 6654 c-19 -2 -84 -9 -145 -15 -529 -52 -1097 -275 -1535 -601
-697 -520 -1140 -1279 -1257 -2155 -24 -178 -24 -598 0 -776 182 -1365 1167
-2431 2504 -2711 226 -48 357 -60 638 -60 281 0 412 12 638 60 1247 261 2200
1214 2461 2461 48 226 60 357 60 638 0 281 -12 412 -60 638 -280 1335 -1354
2328 -2705 2502 -116 15 -521 28 -599 19z m1280 -946 c53 -28 80 -75 80 -138
0 -40 -14 -70 -100 -222 -55 -97 -100 -180 -100 -185 0 -5 30 -14 68 -21 185
-31 389 -115 480 -197 71 -64 112 -148 112 -230 0 -270 -388 -452 -1010 -474
l-185 -6 -581 -1020 c-355 -621 -594 -1030 -613 -1047 -74 -66 -207 -33 -242
60 -28 74 -43 46 539 1065 301 528 549 964 550 969 2 4 -7 8 -20 8 -74 1 -323
69 -422 116 -28 13 -51 24 -52 24 -1 0 -5 -17 -9 -38 -25 -153 -197 -193 -289
-69 -20 27 -21 43 -24 278 -3 238 -2 252 18 294 13 27 36 53 58 67 36 22 44
23 292 23 282 0 296 -3 340 -65 65 -92 17 -215 -96 -244 l-49 -12 83 -23 c77
-21 183 -41 294 -56 l46 -6 315 553 c174 304 326 563 339 575 50 47 112 54
178 21z m-1569 -1720 c51 -29 84 -93 76 -150 -6 -45 -28 -81 -71 -112 -27 -21
-39 -21 -814 -26 l-787 -5 -54 -30 c-65 -36 -106 -83 -127 -148 -24 -73 -15
-411 15 -562 141 -696 680 -1222 1379 -1346 150 -27 567 -38 759 -20 431 40
794 210 1084 508 284 291 441 637 480 1056 6 70 10 176 7 235 -5 126 -25 179
-90 237 -77 70 -73 69 -480 75 -417 6 -401 2 -446 93 -19 37 -22 55 -17 88 8
46 51 101 93 118 20 9 135 11 408 9 l379 -3 71 -26 c39 -14 96 -42 126 -62
l55 -37 259 0 c296 0 356 -9 474 -66 98 -48 211 -160 257 -254 60 -123 61
-135 64 -642 1 -404 -1 -473 -15 -542 -71 -330 -290 -522 -663 -582 -51 -8
-166 -16 -255 -19 -90 -2 -264 -7 -386 -11 l-224 -7 -54 -44 c-204 -166 -474
-303 -735 -372 -207 -55 -279 -63 -617 -68 -343 -6 -471 3 -664 43 -776 162
-1395 787 -1553 1567 -47 236 -57 571 -19 697 46 157 158 295 294 363 137 68
102 66 969 66 l783 1 39 -22z"/>
<path d="M4185 4709 c-47 -83 -85 -152 -83 -154 8 -9 245 19 356 41 128 25
265 72 303 103 l23 18 -45 26 c-24 14 -81 37 -127 51 -76 24 -283 66 -323 66
-12 0 -44 -47 -104 -151z"/>
<path d="M5278 3533 c-13 -15 -17 -60 -21 -243 -6 -243 -18 -342 -68 -529 -54
-203 -143 -403 -258 -577 -32 -49 -57 -93 -54 -97 6 -10 352 0 455 14 267 35
407 133 449 316 7 31 10 201 10 483 -1 491 -2 497 -74 575 -39 43 -47 47 -122
60 -44 8 -130 14 -191 15 -93 0 -113 -3 -126 -17z"/>
</g>
</svg>
